# xmcd
#
# Track frame offsets: 
#        182
#        16575
#        32870
#        50145
#        65642
#        89790
#        103197
#        119732
#        138030
#        158235
#
# Disc length: 2292 seconds
#
# Revision: 1
# Processed by: cddbd v1.4PL0 Copyright (c) Steve Scherf et al.
# Submitted via: ExactAudioCopy v0.90b2
#
DISCID=8e08f20a
DTITLE=The Judds - Spiritual Reflections
DYEAR=1900
DGENRE=Country
TTITLE0=When King Jesus Calls His Children Home
TTITLE1=Guardian Angel
TTITLE2=The Sweetest Gift
TTITLE3=Beautiful Star Of Bethlehem
TTITLE4=Love Can Build A Bridge
TTITLE5=Don't You Hear Jerusalem Moan
TTITLE6=I Know Where I'm Going
TTITLE7=Grandpa (Tell Me 'Bout The Good Old Days)
TTITLE8=River Of Time
TTITLE9=Who Is This Babe
EXTD=
EXTT0=
EXTT1=
EXTT2=
EXTT3=
EXTT4=
EXTT5=
EXTT6=
EXTT7=
EXTT8=
EXTT9=
PLAYORDER=
